# xmcd
# Track frame offsets:
# 150
# 15670
# 42887
# 66316
# 86159
# 104734
#
# Disc length: 1640 seconds
# Revision: 0
# Processed by: cddbd v1.5.2PL0 Copyright (c) Steve Scherf et al.
# Submitted via: VisiTrax 2.11.2.271 - For more info visit www.synapsa.com
#
DISCID=4e066606
DTITLE=Various Artist - AiR Sampler volume 3 march 2002
DYEAR=2002
DGENRE=Country
TTITLE0=Chris Sways - Write My Name In Gold
TTITLE1=Michael Ferguson - Out On The Western Plain
TTITLE2=Kim Chesire - Ship Of Fools
TTITLE3=Andrew McSweeney - Crazy
TTITLE4=Ken Boynton - Whiskey, Wine and Water
TTITLE5=Gus McKay - Open Up The Doors
EXTD=
EXTT0=
EXTT1=
EXTT2=
EXTT3=
EXTT4=
EXTT5=
PLAYORDER=
